<?xml version="1.0"?>
<svg xmlns="http://www.w3.org/2000/svg" xmlns:xlink="http://www.w3.org/1999/xlink" xmlns:svgjs="http://svgjs.com/svgjs" version="1.1" width="25" height="25" x="0" y="0" viewBox="0 0 477.827 477.827" style="enable-background:new 0 0 512 512" xml:space="preserve" class=""><g>
<g xmlns="http://www.w3.org/2000/svg">
	<g>
		<path d="M441.537,160.632c1.489-7.981,2.243-16.082,2.253-24.201C443.699,61.026,382.498-0.028,307.093,0.062    c-57.402,0.069-108.63,36.034-128.194,89.999c-35.029-13.944-74.73,3.148-88.675,38.177c-1.207,3.032-2.195,6.146-2.956,9.319    c-55.932,8.365-94.492,60.488-86.127,116.42c7.502,50.163,50.596,87.275,101.316,87.254H238.99V211.764l-56.201,56.201    c-6.78,6.548-17.584,6.36-24.132-0.419c-6.388-6.614-6.388-17.099,0-23.713l85.333-85.333c1.589-1.593,3.481-2.852,5.564-3.703    c4.175-1.726,8.864-1.726,13.039,0c2.083,0.852,3.974,2.111,5.564,3.703l85.333,85.333c6.78,6.548,6.968,17.352,0.42,24.132    c-6.548,6.78-17.352,6.968-24.132,0.42c-0.142-0.138-0.282-0.277-0.42-0.42l-56.235-56.201v129.468h102.4    c56.554-0.053,102.357-45.943,102.303-102.497C477.798,208.632,464.526,180.066,441.537,160.632z" fill="#adb2b7" data-original="#000000" style=""/>
	</g>
</g>
<g xmlns="http://www.w3.org/2000/svg">
	<g>
		<path d="M238.99,341.231v119.467c0,9.426,7.641,17.067,17.067,17.067c9.426,0,17.067-7.641,17.067-17.067V341.231H238.99z" fill="#adb2b7" data-original="#000000" style=""/>
	</g>
</g>
<g xmlns="http://www.w3.org/2000/svg">
</g>
<g xmlns="http://www.w3.org/2000/svg">
</g>
<g xmlns="http://www.w3.org/2000/svg">
</g>
<g xmlns="http://www.w3.org/2000/svg">
</g>
<g xmlns="http://www.w3.org/2000/svg">
</g>
<g xmlns="http://www.w3.org/2000/svg">
</g>
<g xmlns="http://www.w3.org/2000/svg">
</g>
<g xmlns="http://www.w3.org/2000/svg">
</g>
<g xmlns="http://www.w3.org/2000/svg">
</g>
<g xmlns="http://www.w3.org/2000/svg">
</g>
<g xmlns="http://www.w3.org/2000/svg">
</g>
<g xmlns="http://www.w3.org/2000/svg">
</g>
<g xmlns="http://www.w3.org/2000/svg">
</g>
<g xmlns="http://www.w3.org/2000/svg">
</g>
<g xmlns="http://www.w3.org/2000/svg">
</g>
</g></svg>
